<?xml version="1.0" encoding="UTF-8"?>
<svg version="1.1" xmlns="http://www.w3.org/2000/svg" width="800" height="800">
<path d="M0 0 C264 0 528 0 800 0 C800 264 800 528 800 800 C536 800 272 800 0 800 C0 536 0 272 0 0 Z " fill="#FEFEFE" transform="translate(0,0)"/>
<path d="M0 0 C3.05075084 -0.266487 5.89626179 -0.34757146 8.9453125 -0.29296875 C9.8303244 -0.28872391 10.7153363 -0.28447906 11.62716675 -0.28010559 C14.46008445 -0.26328259 17.29229652 -0.22562425 20.125 -0.1875 C22.04295849 -0.17245782 23.96092811 -0.15876861 25.87890625 -0.14648438 C30.58621031 -0.11336727 35.29298544 -0.06156055 40 0 C38.74584116 2.69247449 37.420571 4.87291761 35.4609375 7.1015625 C34.967146 7.66883057 34.47335449 8.23609863 33.96459961 8.82055664 C33.44003174 9.41602295 32.91546387 10.01148926 32.375 10.625 C28.81869819 14.71419199 25.29733328 18.80857387 21.9375 23.0625 C18.88790229 26.92194938 15.74895974 30.69129369 12.5625 34.4375 C6.58393651 41.47014373 0.74285163 48.60889799 -5.0625 55.78515625 C-6.16645739 57.14860698 -7.27062858 58.51188461 -8.375 59.875 C-8.92953857 60.55965332 -9.48407715 61.24430664 -10.05541992 61.94970703 C-13.54428664 66.24455738 -17.09026718 70.48323414 -20.6875 74.6875 C-24.64495979 79.32036437 -28.4123013 84.06471444 -32.0949707 88.92138672 C-35.42612206 93.29909922 -38.88515488 97.56068221 -42.375 101.8125 C-48.82709644 109.69954872 -54.95502858 117.7984943 -61 126 C-61.57427734 126.77843262 -62.14855469 127.55686523 -62.74023438 128.35888672 C-65.16133402 131.64176696 -67.58129004 134.92547596 -69.99755859 138.21191406 C-73.16163648 142.51435783 -76.34399928 146.80063916 -79.5625 151.0625 C-83.8338016 156.73110473 -87.96836154 162.49452003 -92.10449219 168.26196289 C-96.34881464 174.15776049 -100.75186538 179.90536944 -105.26953125 185.59375 C-107.19461776 187.77664039 -107.19461776 187.77664039 -107 190 C-103.10297892 188.42306589 -100.7510227 185.88838498 -97.875 182.875 C-96.28810774 181.21276567 -94.67090822 179.57775654 -93 178 C-92.34 178 -91.68 178 -91 178 C-90.74500732 177.40783691 -90.49001465 176.81567383 -90.22729492 176.20556641 C-88.87234424 173.77059039 -87.50272831 172.48083646 -85.36328125 170.7109375 C-82.54039299 168.32150739 -79.78580776 165.90030512 -77.10546875 163.3515625 C-76.14592285 162.43938965 -76.14592285 162.43938965 -75.16699219 161.50878906 C-74.51375977 160.88713867 -73.86052734 160.26548828 -73.1875 159.625 C-67.82932074 154.55967166 -62.39864754 149.75577912 -56.62890625 145.1640625 C-53.70827125 142.75985479 -50.94633606 140.21011151 -48.1875 137.625 C-42.2764376 132.10936196 -35.99136214 127.16066942 -29.58837891 122.23291016 C-27.38515432 120.52275274 -25.22519202 118.76099798 -23.0625 117 C0.34146398 98.29977388 29.43065159 77.74680159 60.25 77.5 C61.52230469 77.45875 62.79460937 77.4175 64.10546875 77.375 C72.52071463 77.30552429 78.48276901 78.45559832 85 84 C90.24891964 90.03181921 90.77412556 96.19671882 90.4765625 104.03515625 C87.82775567 126.07236066 72.85887726 144.52943654 58 160 C57.08863281 160.95261719 56.17726563 161.90523437 55.23828125 162.88671875 C49.17626391 169.08709882 42.8126372 174.6446114 36 180 C34.94208933 180.84818685 33.88482027 181.69717445 32.828125 182.546875 C24.83190254 188.9415166 16.59243923 194.95968255 8.2734375 200.92578125 C-0.68586257 207.35500034 -9.49068628 213.98330361 -18 221 C-18.80695313 221.65871094 -19.61390625 222.31742188 -20.4453125 222.99609375 C-25.71156274 227.45415707 -30.97766676 232.08002129 -32.4375 239.10546875 C-32.64946428 242.63599879 -32.09581044 244.83676739 -30.3125 247.875 C-24.72606253 253.00848308 -17.9027165 252.55764435 -10.74609375 252.37109375 C9.07916462 251.22411051 25.64297708 240.68721732 41 229 C41.87140625 228.34257812 42.7428125 227.68515625 43.640625 227.0078125 C54.89735073 218.25661605 65.00589826 208.13824744 75 198 C77.36384692 195.62527649 79.73210011 193.25910025 82.140625 190.9296875 C87.06024082 186.13761728 91.45782633 181.11167165 95.75 175.75390625 C97.92586716 173.0907355 100.18178209 170.53957552 102.5 168 C107.21150633 162.83146925 111.61751139 157.44961941 116 152 C120.6342083 153.42591025 120.6342083 153.42591025 122.125 155.765625 C121.92309933 159.37459945 119.42830892 161.31240796 117 163.75 C115.97068194 164.8248775 114.94203531 165.90039838 113.9140625 166.9765625 C113.41036133 167.49637695 112.90666016 168.01619141 112.38769531 168.55175781 C110.65604048 170.3589669 109.00818248 172.22865068 107.375 174.125 C104.10166315 177.89951761 100.75950106 181.60890928 97.40625 185.3125 C96.12069789 186.74831145 94.83958147 188.18857237 93.59082031 189.65649414 C88.47159213 195.64319032 82.96165733 201.22447402 77.39501953 206.7902832 C75.76172552 208.42575882 74.1366153 210.06907708 72.51171875 211.71289062 C65.98806585 218.27145581 59.28314278 224.28137865 52 230 C50.90390248 230.89194599 49.80865007 231.78493326 48.71484375 232.6796875 C28.66953136 248.52422415 4.47762164 262.99026418 -22 261 C-31.51624261 259.28126296 -38.10123503 256.07396758 -43.7421875 248.0703125 C-48.19015417 240.74912513 -47.70082939 232.59201881 -46.0625 224.5 C-40.84882563 205.37507298 -27.43819802 189.96813024 -14 176 C-13.48002441 175.45811035 -12.96004883 174.9162207 -12.42431641 174.35791016 C-6.21512022 167.92462268 0.10193044 161.87061476 7.12109375 156.3125 C9.87025568 154.10421796 12.53441756 151.82503901 15.19311523 149.51000977 C20.63367222 144.7751594 26.13575161 140.29805085 32.0234375 136.12109375 C57.60837612 119.80547426 57.60837612 119.80547426 74 96 C74.75102535 92.37183542 74.75102535 92.37183542 74 89 C71.11161449 85.78151328 69.33906706 85.14048645 65.05859375 84.69140625 C54.58017657 84.48109563 45.37693314 86.44383806 35.8125 90.625 C34.99297852 90.97836426 34.17345703 91.33172852 33.32910156 91.69580078 C-2.94437529 107.59099905 -34.36404599 134.70956301 -63.19140625 161.41015625 C-65.83173346 163.84483906 -68.50346386 166.23873058 -71.1875 168.625 C-75.37194762 172.3632868 -79.30803186 176.29499757 -83.1875 180.34765625 C-85 182 -85 182 -87 182 C-87 182.66 -87 183.32 -87 184 C-88.2578125 185.234375 -88.2578125 185.234375 -90.125 186.75 C-98.80709411 194.13210141 -106.93728366 202.38042614 -114.296875 211.078125 C-116.43399663 213.48973932 -118.70794279 215.73539257 -121 218 C-124.50593042 221.46908131 -127.82799263 225.00279327 -131.03125 228.75 C-133.07766001 231.0887543 -135.18366322 233.36048066 -137.30517578 235.63085938 C-153.98777445 253.50173646 -168.44534606 273.46541491 -181.90234375 293.8515625 C-184.22992332 297.34509907 -186.61163837 300.79791794 -189 304.25 C-201.02474651 321.67534935 -212.61040746 339.39822634 -224.14550781 357.14990234 C-225.99648875 359.9946037 -227.85278058 362.83576288 -229.7109375 365.67578125 C-236.8725589 376.62536769 -243.96806056 387.61436239 -251.00610352 398.64379883 C-256.19998289 406.7744784 -261.45091216 414.86649106 -266.75976562 422.92260742 C-269.57266767 427.20551403 -272.3281091 431.49754055 -274.9140625 435.921875 C-275.35637207 436.66945068 -275.79868164 437.41702637 -276.25439453 438.18725586 C-277.05286118 439.54959458 -277.8342164 440.92219491 -278.59326172 442.30688477 C-280.49136484 445.53243942 -281.64860871 446.87255917 -285.20898438 448.16381836 C-288.9341765 448.98548136 -292.19234885 449.25831865 -296 449.265625 C-297.9490625 449.26949219 -297.9490625 449.26949219 -299.9375 449.2734375 C-300.60523438 449.26924805 -301.27296875 449.26505859 -301.9609375 449.26074219 C-303.99509494 449.25002584 -306.0283695 449.2606751 -308.0625 449.2734375 C-309.361875 449.27085937 -310.66125 449.26828125 -312 449.265625 C-313.175625 449.26336914 -314.35125 449.26111328 -315.5625 449.25878906 C-319.34253137 448.97421284 -322.40229078 448.15525931 -326 447 C-324.54829227 442.69247379 -322.2446569 439.44711032 -319.4375 435.9375 C-318.52545825 434.77389455 -317.61401136 433.60982263 -316.703125 432.4453125 C-316.24615234 431.86426758 -315.78917969 431.28322266 -315.31835938 430.68457031 C-308.94041514 422.5349749 -302.91742941 414.12474891 -296.88110352 405.72192383 C-293.53921667 401.08539247 -290.13420851 396.51106273 -286.625 392 C-283.31268314 387.73525976 -280.15554631 383.41221536 -277.08984375 378.96875 C-269.87107204 368.71404626 -262.29509243 358.7033272 -254.75 348.6875 C-250.28480733 342.75629901 -245.92983981 336.7569008 -241.6328125 330.703125 C-234.23504022 320.2813211 -226.74667951 309.9273984 -219.046875 299.7265625 C-215.64228376 295.19143906 -212.3254659 290.59325829 -209 286 C-207.70847416 284.22906396 -206.41680582 282.45823183 -205.125 280.6875 C-202.59316161 277.20867555 -200.08244931 273.71602243 -197.58984375 270.20898438 C-193.16627852 263.98612332 -188.66773388 257.82393662 -184.125 251.6875 C-179.15763467 244.97294152 -174.28120639 238.2038689 -169.48461914 231.36645508 C-164.69105169 224.53852483 -159.804637 217.77923243 -154.91015625 211.0234375 C-152.25681951 207.36068875 -149.62471747 203.68330518 -147 200 C-147.93426317 200.93426317 -148.86004689 201.87698435 -149.78515625 202.8203125 C-154.03579614 207.12198924 -158.33757064 211.27657705 -162.93359375 215.20703125 C-164.36535852 216.44933754 -165.77295525 217.71984079 -167.16015625 219.01171875 C-190.94244406 241.12646718 -222.11293305 261.95726715 -255.76171875 261.3125 C-265.77333048 260.34636135 -274.15656755 256.4462631 -280.8203125 248.953125 C-286.17117618 241.53657906 -286.13324029 233.713931 -285 225 C-280.4539514 208.11182822 -267.43879797 194.34165757 -255.4375 182.1875 C-254.92485596 181.66551025 -254.41221191 181.14352051 -253.8840332 180.60571289 C-250.24648179 177 -250.24648179 177 -248 177 C-247.67 176.01 -247.34 175.02 -247 174 C-245.5390625 172.4921875 -245.5390625 172.4921875 -243.625 170.875 C-242.53251953 169.94880859 -242.53251953 169.94880859 -241.41796875 169.00390625 C-240.62003906 168.34261719 -239.82210937 167.68132812 -239 167 C-238.19175781 166.32839844 -237.38351562 165.65679687 -236.55078125 164.96484375 C-233.71297174 162.62757464 -230.85805846 160.31246197 -228 158 C-227.4548877 157.55527344 -226.90977539 157.11054688 -226.34814453 156.65234375 C-208.93857041 142.45174822 -190.70453488 129.43149791 -172 117 C-177.35197066 115.39941064 -182.71926505 114.1356638 -188.1875 113 C-189.03046631 112.82267334 -189.87343262 112.64534668 -190.74194336 112.46264648 C-195.17042231 111.54282343 -199.58632633 110.72076083 -204.0625 110.0625 C-211.51759034 108.88978916 -218.70677623 106.67800591 -225.9453125 104.58740234 C-229.3994455 103.59992088 -232.87363388 102.68796647 -236.34765625 101.7734375 C-240.26959026 100.62978075 -244.13101498 99.3101826 -248 98 C-248.55945313 99.06734375 -249.11890625 100.1346875 -249.6953125 101.234375 C-259.50100265 119.59423135 -271.57160808 136.1371024 -285 152 C-285.54011719 152.64308105 -286.08023438 153.28616211 -286.63671875 153.94873047 C-292.37951651 160.77086047 -298.25701141 167.44206378 -304.5 173.8125 C-305.22038452 174.55935059 -305.22038452 174.55935059 -305.95532227 175.32128906 C-308.76018004 178.12072158 -311.21150531 179.8126638 -315 181 C-315.4375 178.4375 -315.4375 178.4375 -315 175 C-313.56860807 173.21076009 -311.93647972 171.7701927 -310.24609375 170.22265625 C-307.4844222 167.48980214 -305.12195228 164.50481698 -302.75 161.4375 C-302.28311768 160.83502441 -301.81623535 160.23254883 -301.33520508 159.61181641 C-300.37174643 158.36595059 -299.40943786 157.11919459 -298.44824219 155.87158203 C-296.57069769 153.44520709 -294.66798951 151.03926249 -292.7644043 148.63330078 C-281.65408508 134.5731147 -271.2781078 120.21154542 -262 104.875 C-261.62617188 104.25971436 -261.25234375 103.64442871 -260.8671875 103.01049805 C-258.92889079 99.76071031 -257.28936149 96.55917494 -256 93 C-256.55429687 92.54109375 -257.10859375 92.0821875 -257.6796875 91.609375 C-258.40414062 90.99578125 -259.12859375 90.3821875 -259.875 89.75 C-260.59429687 89.14671875 -261.31359375 88.5434375 -262.0546875 87.921875 C-266.25286128 83.77428163 -266.45410614 79.66417295 -266.5 73.9375 C-266.51607944 65.05691737 -264.34521653 58.70731791 -258.21875 52.0703125 C-252.29567794 46.64082978 -246.81453441 45.54316915 -238.88671875 45.6796875 C-234.74497633 46.13925838 -233.01122676 47.14725886 -230 50 C-227.2487007 53.50165365 -227.51552697 57.74132576 -228 62 C-229.74939545 68.27724249 -232.86631877 73.18189874 -236.4765625 78.58203125 C-238.67017042 82.06368074 -239.12087329 84.65974289 -239.0625 88.6875 C-239.05347656 89.49574219 -239.04445313 90.30398438 -239.03515625 91.13671875 C-239.02355469 91.75160156 -239.01195312 92.36648438 -239 93 C-216.74305885 103.00013658 -191.77761325 105.81131353 -167.78125 108.6171875 C-166.65698608 108.75012207 -166.65698608 108.75012207 -165.51000977 108.88574219 C-163.61087229 109.10498529 -161.70979533 109.30725518 -159.80859375 109.5078125 C-157 110 -157 110 -154 112 C-154.42833495 116.83161824 -156.27524046 118.62952856 -159.875 121.75 C-161.36580078 123.05130859 -161.36580078 123.05130859 -162.88671875 124.37890625 C-166.69479098 127.60441358 -170.55282262 130.76779711 -174.4296875 133.91015625 C-180.06696197 138.49365449 -185.26798447 142.98863948 -189.7734375 148.71484375 C-190.17820312 149.13894531 -190.58296875 149.56304687 -191 150 C-191.66 150 -192.32 150 -193 150 C-193.23589844 150.56589844 -193.47179687 151.13179687 -193.71484375 151.71484375 C-195.29414316 154.52302052 -197.22686006 156.34382481 -199.5625 158.5625 C-204.82888443 163.72295141 -209.40761612 169.2432351 -214 175 C-214.70640625 175.83917969 -215.4128125 176.67835938 -216.140625 177.54296875 C-229.98510353 194.00196211 -248.86078918 216.55710458 -249.3125 239 C-249.36857422 240.8253125 -249.36857422 240.8253125 -249.42578125 242.6875 C-249.25361039 246.02639132 -249.25361039 246.02639132 -247.3359375 248.4140625 C-242.19975772 251.90116783 -234.66197918 250.43406993 -228.75 249.5 C-210.50289586 244.79747951 -193.73690798 231.24857984 -179.7421875 219.19921875 C-177 217 -177 217 -175 217 C-175 216.34 -175 215.68 -175 215 C-173.5390625 213.4921875 -173.5390625 213.4921875 -171.625 211.875 C-170.99851562 211.33617187 -170.37203125 210.79734375 -169.7265625 210.2421875 C-168 209 -168 209 -166 209 C-165.67 208.01 -165.34 207.02 -165 206 C-163.64453125 204.66796875 -163.64453125 204.66796875 -161.8125 203.1875 C-153.1001629 195.79616708 -144.95160892 187.50566883 -137.5703125 178.7890625 C-135.79534619 176.7668372 -133.91700977 174.88785373 -132 173 C-128.11959128 169.1641084 -124.54078348 165.14858264 -121 161 C-120.19949219 160.08863281 -119.39898438 159.17726563 -118.57421875 158.23828125 C-111.30977982 149.90045815 -104.87885959 141.06082695 -98.47216797 132.05517578 C-95.06932312 127.30473665 -91.52301153 122.6615821 -88 118 C-85.99799116 115.3348388 -83.99915002 112.66730593 -82 110 C-80.97138156 108.6288857 -79.94273613 107.25779164 -78.9140625 105.88671875 C-77.13583807 103.51594592 -75.35941981 101.14385328 -73.5859375 98.76953125 C-69.74170081 93.62803448 -65.86403972 88.51618288 -61.9375 83.4375 C-58.13140659 78.51257036 -54.43352277 73.51827356 -50.7890625 68.47265625 C-47.55703702 64.00568654 -44.24616645 59.60384128 -40.86328125 55.25 C-35.34183813 48.1370298 -30.01019229 40.91072918 -24.7565918 33.59765625 C-20.25372496 27.33372439 -15.6546101 21.1522543 -11 15 C-9.35211915 12.81403561 -7.70701822 10.62599464 -6.0625 8.4375 C-4.96615234 6.98150391 -4.96615234 6.98150391 -3.84765625 5.49609375 C-2.51712238 3.69860718 -1.2405059 1.86075884 0 0 Z " fill="#37C92C" transform="translate(668,236)"/>
<path d="M0 0 C1.24330078 0.49886719 1.24330078 0.49886719 2.51171875 1.0078125 C12.8413245 5.34453954 19.73434466 11.16310848 24.16650391 21.51782227 C25.55015133 25.63836805 25.68051583 29.55660306 25.625 33.875 C25.61662109 34.78338623 25.60824219 35.69177246 25.59960938 36.62768555 C24.62636595 66.45914958 3.74177629 94.43705322 -15.734375 115.5234375 C-16.975509 116.88012535 -18.20887149 118.24471958 -19.40258789 119.64331055 C-24.43618802 125.53269109 -29.8573 131.00961539 -35.3425293 136.47290039 C-36.93458966 138.05959946 -38.5212299 139.65157742 -40.10742188 141.24414062 C-44.91892976 146.05856193 -49.77618201 150.75117923 -54.95092773 155.17797852 C-59.00058663 158.77890837 -62.79618685 162.64892914 -66.6184082 166.48803711 C-68.06025221 167.93524385 -69.50737116 169.37702026 -70.95507812 170.81835938 C-75.61953513 175.47957065 -80.15519939 180.20065286 -84.44604492 185.2097168 C-85.94433932 186.93587435 -87.4880018 188.59695694 -89.0703125 190.24609375 C-97.44798971 198.97922869 -104.85161066 208.24213224 -112 218 C-112.9590625 219.28003906 -112.9590625 219.28003906 -113.9375 220.5859375 C-121.13239816 230.66628961 -125.69698429 241.50402475 -124 254 C-123.01557804 258.48992457 -120.79143099 262.34313391 -117.02734375 265.11328125 C-107.93418803 269.09044184 -96.11503586 265.19130862 -87.25878906 261.92919922 C-64.81177775 252.69516063 -44.10091563 236.30532309 -25.90234375 220.50390625 C-23.16883389 218.14565616 -20.38168148 215.87952685 -17.5625 213.625 C-11.88433218 209.0094133 -6.57761777 204.03282599 -1.24609375 199.02734375 C1.91909964 196.05991772 5.16199846 193.19418081 8.453125 190.3671875 C9.81785674 189.1609852 11.10392475 187.8670246 12.375 186.5625 C14 185 14 185 16 185 C16.33 184.01 16.66 183.02 17 182 C18.36865234 180.65039062 18.36865234 180.65039062 20.2109375 179.15625 C26.05544018 174.19506716 31.40205749 168.74736446 36.80957031 163.32080078 C38.62453352 161.50046786 40.4447938 159.68555498 42.265625 157.87109375 C43.44042498 156.69563304 44.61491475 155.51986221 45.7890625 154.34375 C46.59085434 153.54499451 46.59085434 153.54499451 47.40884399 152.73010254 C50.71435676 149.40432961 53.76669836 145.95974168 56.71054077 142.30822754 C57.13606232 141.87651245 57.56158386 141.44479736 58 141 C58.66 141 59.32 141 60 141 C60.24363281 140.42765625 60.48726563 139.8553125 60.73828125 139.265625 C62.22517298 136.59566462 63.98083908 134.86170993 66.1875 132.75 C69.71029641 129.36910257 72.92656877 125.82257092 76.11987305 122.13623047 C79.90550035 117.83493987 83.88712302 113.71333143 87.83398438 109.56054688 C88.79208008 108.54637695 88.79208008 108.54637695 89.76953125 107.51171875 C90.34292236 106.90803467 90.91631348 106.30435059 91.50708008 105.68237305 C93.19091179 103.86244519 93.19091179 103.86244519 95 101 C95.66 101 96.32 101 97 101 C97.27440918 100.40413086 97.54881836 99.80826172 97.83154297 99.19433594 C98.95298657 97.08829016 100.07140136 95.62213474 101.6953125 93.890625 C102.23824951 93.30877441 102.78118652 92.72692383 103.34057617 92.12744141 C103.92943604 91.50788574 104.5182959 90.88833008 105.125 90.25 C105.74028564 89.59821777 106.35557129 88.94643555 106.98950195 88.27490234 C128.15640083 65.97297071 128.15640083 65.97297071 140 57 C140.86625 56.32839844 141.7325 55.65679687 142.625 54.96484375 C148.7546212 50.34089985 155.14035683 46.48736352 161.8359375 42.76171875 C163.77636323 41.68130887 165.69964249 40.56839551 167.58984375 39.40234375 C170.06684413 37.9611069 172.51456028 36.90212056 175.1875 35.875 C178.64144114 34.54502382 178.64144114 34.54502382 182 33 C183.70702735 32.93003986 185.41668003 32.91559846 187.125 32.9375 C188.03507812 32.94652344 188.94515625 32.95554688 189.8828125 32.96484375 C190.58148438 32.97644531 191.28015625 32.98804688 192 33 C192.33 34.65 192.66 36.3 193 38 C192.48203857 38.21092285 191.96407715 38.4218457 191.43041992 38.63916016 C160.77391062 51.17937692 136.48833197 69.95221552 116 96 C114.58427256 97.68828804 113.16757609 99.37576389 111.75 101.0625 C95.29742038 121.20618009 81.23155963 143.47782139 67.875 165.75 C67.22901855 166.82693115 66.58303711 167.9038623 65.91748047 169.01342773 C59.91814998 179.06050812 54.14075465 189.22498658 48.43408203 199.44042969 C47.09946035 201.82248173 45.75392419 204.19785191 44.40234375 206.5703125 C44.00321777 207.272771 43.6040918 207.97522949 43.19287109 208.69897461 C42.16217714 210.51215003 41.12999614 212.32447994 40.09765625 214.13671875 C38.36754463 217.247621 36.80024772 220.42466237 35.234375 223.62109375 C31.86735269 230.39903076 28.0727333 236.88359785 24.1875 243.375 C23.4711014 244.57657363 22.7547115 245.77815246 22.03833008 246.97973633 C11.91302045 263.92472326 1.13216189 280.43075007 -10.828125 296.14453125 C-12.2911442 298.06803311 -13.73883739 300.00327739 -15.171875 301.94921875 C-22.7961311 312.29062994 -31.07963066 321.9987289 -39.734375 331.48828125 C-40.97810903 332.86711053 -42.21525217 334.25240417 -43.42016602 335.6652832 C-48.32118784 341.39109145 -53.57848057 346.73121377 -58.9152832 352.0456543 C-60.43491668 353.5599258 -61.94912517 355.0794743 -63.46289062 356.59960938 C-68.80094788 361.94170041 -74.21292893 367.14065913 -80 372 C-80.90105469 372.75925781 -81.80210937 373.51851563 -82.73046875 374.30078125 C-85.47556955 376.54835981 -88.23317494 378.77921062 -91 381 C-91.94230469 381.76054687 -92.88460937 382.52109375 -93.85546875 383.3046875 C-122.63470873 406.0153426 -156.15897686 425.41847208 -192 434 C-193.80597656 434.45439453 -193.80597656 434.45439453 -195.6484375 434.91796875 C-223.3184966 440.89537503 -254.9581478 438.70055187 -279.34375 423.8125 C-287.19839871 418.45285735 -294.90227949 409.96757848 -296.75 400.36328125 C-298.43792918 384.40707576 -298.43792918 384.40707576 -294.47265625 377.8125 C-290.04671658 372.36518964 -284.41625278 366.52896621 -277.1953125 365.6640625 C-270.80664963 365.5827818 -266.7906492 365.58755995 -262 370 C-259.65154027 373.5226896 -259.41461138 375.43938198 -259.46875 379.57421875 C-260.45533471 384.07913862 -263.73121546 386.92718575 -267 390 C-267.33 390.33 -267.66 390.66 -268 391 C-270.46981769 391.1002074 -272.90551224 391.13877038 -275.375 391.125 C-276.06078125 391.12886719 -276.7465625 391.13273437 -277.453125 391.13671875 C-280.57222638 391.13065046 -283.01975635 390.99341455 -286 390 C-285.9700519 398.71489833 -284.78515504 405.27820081 -279 412 C-264.15807147 425.7238512 -245.96001395 429.57266386 -226.25 429.3125 C-224.39568359 429.31733398 -224.39568359 429.31733398 -222.50390625 429.32226562 C-215.42759689 429.28090569 -208.85776548 428.75935791 -202 427 C-201.33613281 426.8337915 -200.67226562 426.66758301 -199.98828125 426.49633789 C-170.39153191 418.65274351 -143.55428611 399.09780388 -121 379 C-119.4802612 377.66541925 -117.95962461 376.33185903 -116.4375 375 C-115.83164063 374.46632813 -115.22578125 373.93265625 -114.6015625 373.3828125 C-113.20359977 372.17579102 -111.76127135 371.02054014 -110.3125 369.875 C-107.67978799 367.74036864 -105.36855088 365.42494495 -103 363 C-102.46375 362.4740625 -101.9275 361.948125 -101.375 361.40625 C-97.74103013 357.83717245 -94.33052499 354.14817701 -91.0078125 350.2890625 C-89.05659822 348.06452637 -87.05874679 345.88871892 -85.04589844 343.7199707 C-79.44094717 337.67490557 -74.13070306 331.45671247 -69 325 C-68.566875 324.45585449 -68.13375 323.91170898 -67.6875 323.35107422 C-50.23617858 301.39438679 -33.9966654 278.57599186 -18.4831543 255.2175293 C-15.0704141 250.08583967 -11.56346845 245.02829342 -8 240 C-6.53040832 237.91922796 -5.06160638 235.83789949 -3.59277344 233.7565918 C-2.53123118 232.25263178 -1.46938235 230.74888811 -0.40722656 229.24536133 C2.27990975 225.44111514 4.96040751 221.63259112 7.625 217.8125 C11.17707317 212.72950909 14.78382325 207.68592279 18.39453125 202.64453125 C20.10791325 200.25142878 21.81333798 197.8529888 23.51171875 195.44921875 C28.41598089 188.52041109 33.45193884 181.7268552 38.67578125 175.03515625 C41.19799933 171.74143617 43.60494049 168.38699566 46 165 C45.42668945 165.61875 45.42668945 165.61875 44.84179688 166.25 C27.10793504 185.37098701 27.10793504 185.37098701 18.19921875 193.01953125 C15.53519946 195.41856816 13.01707767 197.94934982 10.5 200.5 C6.16230696 204.88330651 1.70163147 209.01171951 -3 213 C-4.02681983 213.88972773 -5.05278776 214.78043912 -6.078125 215.671875 C-24.02210702 231.23377606 -42.58647727 246.29687917 -63.30761719 258.02978516 C-64.88115327 258.93186715 -66.43010932 259.87645808 -67.9765625 260.82421875 C-81.32912889 268.66312646 -100.2763519 277.16159144 -116 274 C-124.04031753 271.46674927 -129.25871168 267.03711729 -133.25 259.703125 C-139.36385548 245.69220619 -136.17081034 231.77015505 -131.05078125 218.0703125 C-128.17095012 210.779843 -124.75071847 203.8749433 -121 197 C-120.18332662 195.46628805 -119.36693075 193.9324283 -118.55078125 192.3984375 C-114.51364732 184.89323993 -110.36768484 177.68698618 -105.1875 170.8984375 C-102.93529882 167.91427093 -100.80388777 164.86588363 -98.67456055 161.79370117 C-93.8501483 154.84706441 -88.87423943 148.20111166 -83.37109375 141.7734375 C-80.97980282 138.97637562 -78.67610919 136.12146959 -76.375 133.25 C-73.15834392 129.30280055 -69.81012423 125.64871788 -66.1171875 122.14453125 C-64.27783858 120.2814269 -62.58930166 118.37593958 -60.88720703 116.3894043 C-57.00516503 111.9399049 -52.88522906 107.77496963 -48.6875 103.625 C-47.5286731 102.47185303 -47.5286731 102.47185303 -46.34643555 101.29541016 C-43.07623964 98.0414017 -39.8000651 94.79343734 -36.52441406 91.54492188 C-34.11834715 89.15704648 -31.71536962 86.76609207 -29.3125 84.375 C-28.58313232 83.65393066 -27.85376465 82.93286133 -27.10229492 82.18994141 C-23.06866012 78.17540569 -19.21592408 74.06654586 -15.50985718 69.74700928 C-14.11568955 68.13386082 -12.68801064 66.56774368 -11.2265625 65.015625 C5.03086387 48.04901649 5.03086387 48.04901649 10.2734375 26.0390625 C9.73172963 20.01836651 7.23736557 15.90515855 2.9375 11.75 C-1.51973999 8.23011949 -6.61674924 6.61497523 -12 5 C-12.70382812 4.78472656 -13.40765625 4.56945312 -14.1328125 4.34765625 C-48.19170793 -5.0978269 -86.24282156 6.68085432 -117 21 C-117.96873047 21.44013428 -117.96873047 21.44013428 -118.95703125 21.88916016 C-159.25303896 40.27037282 -205.11588819 75.77346822 -222.2265625 117.84375 C-225.68703476 127.49112722 -228.81167159 138.64279241 -224.375 148.5 C-221.51476655 153.25701985 -218.08520628 156.10634016 -212.9375 158.3125 C-200.12075608 160.55034418 -187.54466869 158.93048049 -176 153 C-175.2059375 152.61328125 -174.411875 152.2265625 -173.59375 151.828125 C-167.47400164 148.69451891 -161.8635332 144.94792603 -156.25 141 C-155.18652344 140.25266602 -155.18652344 140.25266602 -154.1015625 139.49023438 C-150.00511114 136.56364975 -146.15979978 133.49228701 -142.43652344 130.1015625 C-141 129 -141 129 -139 129 C-138.67 128.01 -138.34 127.02 -138 126 C-136.45336914 124.47241211 -136.45336914 124.47241211 -134.47265625 122.83984375 C-129.90100728 118.95898551 -125.66463017 114.81258291 -121.4375 110.5625 C-120.72142578 109.85029297 -120.00535156 109.13808594 -119.26757812 108.40429688 C-114.6386571 103.76695197 -110.26135496 98.97544491 -106 94 C-105.154375 93.03578125 -104.30875 92.0715625 -103.4375 91.078125 C-95.12222874 81.43027822 -87.51762588 71.27670808 -80 61 C-79.53787109 60.37029297 -79.07574219 59.74058594 -78.59960938 59.09179688 C-72.72884594 51.0391434 -67.79369642 42.59958586 -63.02880859 33.86816406 C-61.38921829 30.89091085 -59.69406803 27.94653631 -58 25 C-56.02 25.99 -56.02 25.99 -54 27 C-53.42868823 44.24515158 -53.42868823 44.24515158 -57 52 C-57.4640625 53.093125 -57.928125 54.18625 -58.40625 55.3125 C-64.38665246 69.05392505 -72.29582887 81.58760399 -82 93 C-82.75023437 93.93328125 -83.50046875 94.8665625 -84.2734375 95.828125 C-95.64026513 109.85207482 -108.6194291 123.07076612 -123 134 C-124.24754969 134.9968786 -125.49351548 135.99574114 -126.73828125 136.99609375 C-148.58047531 154.36208865 -174.71769616 171.07036088 -203.4375 171.25 C-204.66823242 171.2809375 -204.66823242 171.2809375 -205.92382812 171.3125 C-213.81243246 171.36286619 -219.78902642 169.02163822 -226 164 C-234.88093594 152.89353119 -235.01765 141.6929869 -234 128 C-228.22763934 93.36583603 -195.08755473 61.50696041 -168 42 C-166.88840775 41.17179982 -165.77774308 40.34235333 -164.66796875 39.51171875 C-121.16590086 7.31643833 -54.05801881 -22.75253019 0 0 Z " fill="#38C92D" transform="translate(305,120)"/>
<path d="M0 0 C0.66 0.33 1.32 0.66 2 1 C-7.9 10.9 -17.8 20.8 -28 31 C-28.66 30.67 -29.32 30.34 -30 30 C-29.33613281 29.34773438 -28.67226563 28.69546875 -27.98828125 28.0234375 C-22.44677628 22.63300862 -22.44677628 22.63300862 -17.375 16.8125 C-14.82693739 13.79505744 -12.06938923 11.36684672 -9.0703125 8.8125 C-5.89141739 6.0294673 -2.94449752 3.02731151 0 0 Z " fill="#E4F8E2" transform="translate(494,368)"/>
<path d="M0 0 C0 4.1350296 -1.73684685 5.43749525 -4.375 8.5625 C-5.18710937 9.53316406 -5.99921875 10.50382812 -6.8359375 11.50390625 C-8.17405182 13.04732692 -9.55558017 14.55558017 -11 16 C-10.58269656 11.14329827 -8.1999142 8.54863925 -4.9375 5.1875 C-4.46505859 4.68541016 -3.99261719 4.18332031 -3.50585938 3.66601562 C-2.34591548 2.43577211 -1.17411185 1.21672935 0 0 Z " fill="#CAF1C7" transform="translate(351,284)"/>
</svg>
