<?xml version="1.0" encoding="UTF-8"?>
<svg version="1.1" xmlns="http://www.w3.org/2000/svg" width="800" height="800">
<path d="M0 0 C1.83499146 -0.36076355 1.83499146 -0.36076355 4.08251953 -0.34057617 C5.34360031 -0.34023628 5.34360031 -0.34023628 6.63015747 -0.33988953 C7.53853363 -0.32440567 8.44690979 -0.30892181 9.3828125 -0.29296875 C10.31221649 -0.28872391 11.24162048 -0.28447906 12.19918823 -0.28010559 C15.17475056 -0.26328012 18.14964156 -0.22562103 21.125 -0.1875 C23.13931315 -0.17245816 25.15363689 -0.15876888 27.16796875 -0.14648438 C32.11223879 -0.11336394 37.05600549 -0.06155529 42 0 C39.25095317 4.18142969 36.39447801 8.02129677 33.125 11.8125 C28.65068257 17.03689194 24.24241289 22.31089187 19.875 27.625 C19.27743896 28.35195068 18.67987793 29.07890137 18.06420898 29.82788086 C16.37508807 31.88439431 14.68717298 33.94188828 13 36 C12.55350098 36.54462891 12.10700195 37.08925781 11.64697266 37.65039062 C9.09504909 40.76453326 6.54689698 43.8817459 4 47 C-0.6414902 52.68273705 -5.29243693 58.35726533 -9.9609375 64.01782227 C-20.66655407 77.00101201 -31.30520375 90.02693675 -41.66162109 103.29101562 C-43.00452244 105.00577474 -44.3545791 106.71464141 -45.70703125 108.421875 C-54.65212143 119.72456102 -63.30702291 131.23724534 -71.7578125 142.9140625 C-79.2284837 153.19599674 -86.78870456 163.41248016 -94.4375 173.5625 C-98.7521331 179.28915623 -102.95653489 185.07717786 -107 191 C-102.44453619 187.10714911 -98.07342835 183.12298437 -93.87719727 178.84594727 C-92.06555013 177.0644589 -90.19945138 175.39860864 -88.2734375 173.7421875 C-84.12604039 170.13633558 -80.11702862 166.40115068 -76.125 162.625 C-67.51643265 154.52644478 -58.84880635 146.6241748 -49.65625 139.1875 C-47.1931702 137.15908134 -44.80723249 135.07359689 -42.4375 132.9375 C-14.08874236 107.52824447 22.78729542 78.11462939 62.4375 77.5 C63.34943115 77.48114746 64.2613623 77.46229492 65.20092773 77.44287109 C72.1904381 77.51061253 78.61489044 78.87285369 83.88378906 83.74023438 C88.45992719 88.7391835 90.89078705 94.15598816 91 101 C89.0330799 124.60304115 76.07815976 143.4684205 60 160 C59.20988525 160.82081055 59.20988525 160.82081055 58.40380859 161.65820312 C52.38252305 167.8961332 46.31718599 173.83675485 39.4296875 179.12890625 C36.89256426 181.08273588 34.45134377 183.12732811 32 185.1875 C26.49788509 189.70404567 20.75505378 193.84455868 14.97119141 197.9909668 C7.2244034 203.54473618 -0.4451603 209.18731259 -8 215 C-8.70495605 215.54188965 -9.40991211 216.0837793 -10.13623047 216.64208984 C-22.33896449 225.29957813 -22.33896449 225.29957813 -31 237 C-31.50964646 241.07717166 -31.43489763 244.92024607 -31 249 C-30.21625 249.309375 -29.4325 249.61875 -28.625 249.9375 C-26 251 -26 251 -24 252 C3.71387913 255.09500609 24.62152574 242.19019411 45.78027344 225.78271484 C50.14721587 222.2755202 54.23414756 218.49312974 58.26953125 214.61328125 C60.5796871 212.40227372 62.93248845 210.31101451 65.375 208.25 C68.55680471 205.49727683 71.2381539 202.50768519 73.953125 199.30078125 C76.5220157 196.41323044 79.24967824 193.71355501 82 191 C86.54967927 186.49414792 90.86330111 181.89113783 95 177 C95.94692274 175.90408833 96.89494183 174.80912348 97.84375 173.71484375 C98.89620201 172.49771453 99.94827696 171.28025917 101 170.0625 C101.52215088 169.45849365 102.04430176 168.8544873 102.58227539 168.23217773 C106.07590343 164.16059829 109.3437036 159.98681694 112.40234375 155.57421875 C114.51265048 153.49487006 116.07936659 153.21393175 119 153 C121.3125 154.4375 121.3125 154.4375 123 156 C122.46568096 160.1123483 120.30189725 162.12656137 117.5 165.0625 C113.9423746 168.84516171 110.56293769 172.69394608 107.3125 176.75 C104.3053077 180.47595882 101.21230301 183.92248797 97.76171875 187.23730469 C96.09514362 188.90480364 94.57924867 190.62547693 93.05859375 192.42578125 C88.38507262 197.80181342 83.36294951 202.82311049 78.32788086 207.85742188 C76.66816402 209.51936188 75.01665543 211.1891961 73.36523438 212.859375 C72.31038386 213.91715357 71.2550629 214.97446325 70.19921875 216.03125 C69.70653 216.53112427 69.21384125 217.03099854 68.70622253 217.54602051 C65.22887123 221 65.22887123 221 63 221 C62.67 221.99 62.34 222.98 62 224 C59.84791742 225.8600768 57.70026079 227.59802356 55.4375 229.3125 C54.79490234 229.80669434 54.15230469 230.30088867 53.49023438 230.81005859 C52.22094189 231.78448763 50.94935649 232.75593852 49.67529297 233.72412109 C48.37026286 234.71801316 47.07558856 235.7255081 45.78515625 236.73828125 C24.1300224 253.56010295 0.96361623 264.10619722 -26.82421875 261.76171875 C-33.37362537 260.63014588 -38.27939762 257.2177683 -42.5390625 252.1796875 C-47.44348714 245.09551857 -48.4761332 237.94202122 -47.375 229.5 C-45.27084467 218.24276896 -40.25805834 209.50854705 -34 200 C-33.41605469 199.10539063 -32.83210938 198.21078125 -32.23046875 197.2890625 C-26.09221421 188.38257552 -18.4939113 180.75624192 -11 173 C-10.22140625 172.18015625 -9.4428125 171.3603125 -8.640625 170.515625 C-4.31934234 166.05149002 0.37038944 162.17004877 5.21484375 158.28515625 C7.8751488 156.10243752 10.40928348 153.83342616 12.9375 151.5 C18.33313582 146.59022712 24.11976262 142.30718025 30 138 C44.90782122 127.08305804 44.90782122 127.08305804 59.1875 115.375 C62 113 62 113 64 113 C64.66 111.68 65.32 110.36 66 109 C66.66 109 67.32 109 68 109 C68.37125 108.01 68.37125 108.01 68.75 107 C70 104 70 104 71.05859375 102.09765625 C72.93335121 98.71790318 74 96.61987456 74 92.6875 C72.79715063 89.45484232 71.96653945 88.70637311 69 87 C37.74097954 82.68974997 6.89766316 106.3841302 -16.44140625 124.0546875 C-18.04448901 125.27351989 -19.6374495 126.50591231 -21.21484375 127.7578125 C-23 129 -23 129 -25 129 C-25 129.66 -25 130.32 -25 131 C-26.94670229 132.61874163 -28.89877655 134.13017975 -30.9375 135.625 C-35.96750003 139.38390822 -40.70931538 143.29854097 -45.29296875 147.6015625 C-47 149 -47 149 -49 149 C-49 149.66 -49 150.32 -49 151 C-50.42991589 152.26623221 -51.92394269 153.46003316 -53.4375 154.625 C-58.82539931 158.92691181 -63.86706852 163.5124612 -68.875 168.25 C-69.60001709 168.93529785 -70.32503418 169.6205957 -71.07202148 170.32666016 C-74.06220763 173.16617667 -77.02492051 176.01149833 -79.8828125 178.984375 C-82 181 -82 181 -84 181 C-84.33 181.99 -84.66 182.98 -85 184 C-86.453125 185.4296875 -86.453125 185.4296875 -88.25 186.875 C-91.34700341 189.43695201 -94.19014959 192.11990333 -97 195 C-97.556875 195.5465625 -98.11375 196.093125 -98.6875 196.65625 C-101.4641229 199.38500009 -104.15966907 202.10923355 -106.625 205.125 C-108.94913425 207.93842567 -111.312842 210.53071968 -114 213 C-114.66 213 -115.32 213 -116 213 C-116.24363281 213.57234375 -116.48726562 214.1446875 -116.73828125 214.734375 C-118.22517298 217.40433538 -119.98083908 219.13829007 -122.1875 221.25 C-125.67596998 224.66070154 -128.95484129 228.14580219 -132.12890625 231.84765625 C-134.33079829 234.38052162 -136.60195826 236.84332522 -138.875 239.3125 C-150.97637766 252.61491664 -162.24976132 266.97303419 -172.05078125 282.0546875 C-174.24464652 285.36966629 -176.54723241 288.59098406 -178.875 291.8125 C-183.70109021 298.50926852 -188.29062316 305.34834273 -192.8359375 312.23779297 C-194.59023323 314.89352002 -196.35789082 317.54028762 -198.125 320.1875 C-199.08792969 321.63189453 -199.08792969 321.63189453 -200.0703125 323.10546875 C-203.03515625 327.55273438 -203.03515625 327.55273438 -206 332 C-206.66902344 333.00417969 -207.33804688 334.00835938 -208.02734375 335.04296875 C-209.26709453 336.90136745 -210.50896923 338.75835281 -211.75390625 340.61328125 C-222.24357761 356.26849272 -232.44752624 372.11604966 -242.671875 387.9453125 C-244.07135471 390.11038994 -245.47293377 392.27409673 -246.875 394.4375 C-253.44681876 404.5790996 -259.95720071 414.75680063 -266.40576172 424.97729492 C-267.46343509 426.65094561 -268.52363401 428.32300309 -269.58642578 429.9934082 C-271.81185374 433.49626685 -274.02358341 436.9935596 -276.08203125 440.59765625 C-280.16896294 447.59987105 -280.16896294 447.59987105 -284.375 449.625 C-285.57125 449.74875 -286.7675 449.8725 -288 450 C-288.63164062 450.103125 -289.26328125 450.20625 -289.9140625 450.3125 C-301.97577252 452.11949776 -314.06260568 451.06007421 -326 449 C-326 444.28469409 -325.22517851 443.53908921 -322.375 439.9375 C-321.54033726 438.86431386 -320.70709979 437.7900183 -319.875 436.71484375 C-319.41480469 436.12429199 -318.95460938 435.53374023 -318.48046875 434.92529297 C-315.71595657 431.33015065 -313.0543504 427.65876894 -310.375 424 C-305.39284646 417.22060334 -300.36855155 410.47443905 -295.3125 403.75 C-290.09522976 396.80938708 -284.92214174 389.83972453 -279.80078125 382.828125 C-277.1833773 379.24532377 -274.54809072 375.67589839 -271.91186523 372.10693359 C-266.69125078 365.03816884 -261.50551435 357.94695286 -256.375 350.8125 C-251.83009699 344.49359222 -247.20318636 338.24459048 -242.51464844 332.03173828 C-238.26331594 326.38417576 -234.12242677 320.66113915 -229.99609375 314.921875 C-226.03592425 309.41902665 -222.0297878 303.95203305 -218 298.5 C-209.1773825 286.55382437 -200.46651942 274.53267891 -191.9375 262.375 C-187.57979151 256.16501528 -183.08639425 250.07517044 -178.50634766 244.02783203 C-174.31694727 238.47526837 -170.30426075 232.80925186 -166.31542969 227.11157227 C-162.00805412 220.97220081 -157.54921456 214.96222818 -153 209 C-153.99 209 -154.98 209 -156 209 C-156.33 209.99 -156.66 210.98 -157 212 C-158.3203125 213.3671875 -158.3203125 213.3671875 -160.125 214.875 C-162.90206703 217.22062983 -165.66120811 219.57770626 -168.375 221.99609375 C-194.16174919 244.88568625 -223.41086051 263.62458575 -259 262 C-268.12314825 261.11670764 -274.9220893 256.77252907 -281 250 C-281.556875 249.38125 -282.11375 248.7625 -282.6875 248.125 C-287.21938995 240.78765437 -286.85379761 231.95806277 -285.0625 223.8125 C-281.16533598 210.79116998 -271.72062725 198.24645031 -262 189 C-261.33484375 188.31421875 -260.6696875 187.6284375 -259.984375 186.921875 C-259.26765625 186.18453125 -258.5509375 185.4471875 -257.8125 184.6875 C-256.80123047 183.64142578 -256.80123047 183.64142578 -255.76953125 182.57421875 C-254 181 -254 181 -252 181 C-251.67 180.01 -251.34 179.02 -251 178 C-249.6796875 176.6328125 -249.6796875 176.6328125 -247.875 175.125 C-245.1372941 172.8103499 -242.4117922 170.48900134 -239.73046875 168.109375 C-231.15195473 160.5241503 -222.27905602 153.44854234 -213.11425781 146.58642578 C-211.04561069 145.03422382 -208.9865498 143.47011663 -206.9296875 141.90234375 C-195.89777402 133.51991674 -184.53706719 125.66771235 -173 118 C-173.93175049 117.81993408 -173.93175049 117.81993408 -174.88232422 117.63623047 C-226.00245454 107.70736174 -226.00245454 107.70736174 -248 99 C-248.2784375 99.72445312 -248.556875 100.44890625 -248.84375 101.1953125 C-256.33478473 119.36613323 -269.70633106 135.77427064 -282.15234375 150.72265625 C-284.1074887 153.05997757 -284.1074887 153.05997757 -286 156 C-286.66 156 -287.32 156 -288 156 C-288.2475 156.556875 -288.495 157.11375 -288.75 157.6875 C-290.22924818 160.42410913 -291.93467439 162.67650869 -294 165 C-294.66 165 -295.32 165 -296 165 C-296.21140625 165.53367187 -296.4228125 166.06734375 -296.640625 166.6171875 C-298.52613122 169.92224151 -301.0834104 172.45190653 -303.75 175.125 C-304.26304687 175.66253906 -304.77609375 176.20007813 -305.3046875 176.75390625 C-308.62847133 180.10274373 -311.29423938 181.8587826 -316 183 C-316.4375 179.9375 -316.4375 179.9375 -316 176 C-314.58714892 174.15387459 -312.96513082 172.73696667 -311.23828125 171.1796875 C-308.50142072 168.51447253 -306.19856604 165.58321935 -303.875 162.5625 C-300.38379588 158.03933523 -296.84385502 153.57307979 -293.20068359 149.17114258 C-282.45223523 136.15606911 -272.89657632 122.33619727 -264 108 C-263.64470215 107.43313477 -263.2894043 106.86626953 -262.92333984 106.28222656 C-261.89478784 104.6333453 -260.8845072 102.97310948 -259.875 101.3125 C-259.29492188 100.35988281 -258.71484375 99.40726562 -258.1171875 98.42578125 C-256.638771 95.94355436 -256.638771 95.94355436 -258 93 C-259.45448791 91.83008581 -260.91205346 90.66096674 -262.4296875 89.57421875 C-266.54432352 85.44934732 -267.43111441 80.89486189 -267.4375 75.25 C-267.22056206 66.2989519 -264.85414433 59.09232111 -258.71484375 52.46875 C-253.05633933 47.62228608 -246.36972637 45.50868491 -239 46 C-234.06874992 47.72593753 -230.38142614 49.23714772 -228 54 C-226.69274927 64.16015124 -229.51280968 72.0350571 -235.625 80.16015625 C-238.53408627 84.05271203 -239.28057407 88.23024077 -239 93 C-219.56769762 102.5456924 -196.42535046 104.91390895 -175.25390625 108.0703125 C-173.73047607 108.30089355 -173.73047607 108.30089355 -172.17626953 108.53613281 C-169.93026324 108.86414295 -167.68074158 109.16849273 -165.42919922 109.45605469 C-163.68340576 109.69050293 -163.68340576 109.69050293 -161.90234375 109.9296875 C-160.84394287 110.06358887 -159.78554199 110.19749023 -158.69506836 110.33544922 C-155.84140709 111.03910589 -154.79381638 111.72723891 -153 114 C-154.38028094 118.35555318 -156.30932756 120.53893645 -159.75 123.5 C-160.64203125 124.27214844 -161.5340625 125.04429687 -162.453125 125.83984375 C-163.29359375 126.55269531 -164.1340625 127.26554687 -165 128 C-165.95132813 128.83724609 -165.95132813 128.83724609 -166.921875 129.69140625 C-170.73005698 133 -170.73005698 133 -173 133 C-173 133.66 -173 134.32 -173 135 C-174.34790039 136.33105469 -174.34790039 136.33105469 -176.28515625 137.921875 C-181.41323775 142.28610366 -186.1777961 146.99171706 -190.93579102 151.75048828 C-192.42641615 153.23893237 -193.92487017 154.71917277 -195.42382812 156.19921875 C-201.73303669 162.47154923 -207.47534471 169.01432994 -213 176 C-214.03649228 177.26643084 -215.0752421 178.53102061 -216.1171875 179.79296875 C-239.75902391 207.87314984 -239.75902391 207.87314984 -249 242 C-248.58660211 245.36981914 -248.01847011 248.09904567 -245.375 250.4375 C-231.84625915 253.64167547 -218.42595509 246.5264508 -207 240 C-203.51607916 237.84026226 -200.25193548 235.49280858 -197 233 C-195.99710938 232.24976563 -194.99421875 231.49953125 -193.9609375 230.7265625 C-177.60352229 218.40853312 -162.62220615 204.68858083 -148.125 190.25 C-147.32819824 189.45787109 -146.53139648 188.66574219 -145.71044922 187.84960938 C-141.51377137 183.64148684 -137.48034104 179.3538117 -133.60400391 174.84912109 C-131.6473464 172.59345534 -129.61916808 170.41353935 -127.57666016 168.23583984 C-116.99623106 156.95076057 -107.85046315 144.8222658 -98.72705078 132.35302734 C-90.92879653 121.7282642 -82.91999136 111.26040318 -74.92675781 100.78222656 C-66.53891423 89.78144747 -58.25064928 78.71265451 -50.0625 67.5625 C-45.60452002 61.49187723 -41.09260298 55.46940493 -36.5 49.5 C-30.15257242 41.24660882 -23.97433585 32.87464092 -17.81884766 24.47753906 C-15.90827571 21.87505797 -13.99202334 19.27684277 -12.07421875 16.6796875 C-11.43411865 15.81263184 -10.79401855 14.94557617 -10.13452148 14.05224609 C-8.90393199 12.3856335 -7.67299061 10.71928067 -6.44165039 9.05322266 C-5.88856201 8.30347168 -5.33547363 7.5537207 -4.765625 6.78125 C-4.03520996 5.7922168 -4.03520996 5.7922168 -3.29003906 4.78320312 C-2.15577103 3.21532014 -1.07343031 1.61014546 0 0 Z M-152 205 C-151 207 -151 207 -151 207 Z " fill="#33C728" transform="translate(668,235)"/>
<path d="M0 0 C7.49431434 7.38725271 10.66807552 15.10140235 11.078125 25.6171875 C10.25582243 57.31321371 -8.88341538 84.85989885 -29.359375 107.6171875 C-30.13240967 108.47707275 -30.90544434 109.33695801 -31.7019043 110.22290039 C-38.08906358 117.28110722 -44.68708251 124.10187704 -51.4309082 130.8190918 C-53.05994072 132.44270979 -54.68348228 134.07168353 -56.30664062 135.70117188 C-61.17437473 140.57177346 -66.08247021 145.32697316 -71.3190918 149.80395508 C-75.36657282 153.40101641 -79.1585279 157.26909579 -82.9777832 161.10522461 C-84.41962721 162.55243135 -85.86674616 163.99420776 -87.31445312 165.43554688 C-92.00181357 170.11954601 -96.56868568 174.86117501 -100.8815918 179.89428711 C-102.9401044 182.29424142 -105.08903878 184.6073791 -107.234375 186.9296875 C-118.34615737 199.14929107 -129.75354695 212.31100055 -136.359375 227.6171875 C-136.67648438 228.29007813 -136.99359375 228.96296875 -137.3203125 229.65625 C-140.01467018 235.86068832 -140.50775288 241.86900969 -138.515625 248.37109375 C-136.70634419 252.5703367 -135.01911275 255.86509428 -130.734375 257.8046875 C-115.93234126 261.72778291 -98.95984156 252.6560112 -86.44970703 245.52929688 C-82.31445816 243.04613418 -78.32107291 240.3667918 -74.359375 237.6171875 C-73.7809082 237.21741699 -73.20244141 236.81764648 -72.60644531 236.40576172 C-62.83775456 229.6194043 -53.12576442 222.58802865 -44.109375 214.82421875 C-41.359375 212.6171875 -41.359375 212.6171875 -39.359375 212.6171875 C-39.359375 211.9571875 -39.359375 211.2971875 -39.359375 210.6171875 C-37.78650816 209.20280344 -36.14797504 207.86114349 -34.484375 206.5546875 C-29.58039322 202.64672789 -24.9360367 198.55694285 -20.35546875 194.26953125 C-18.359375 192.6171875 -18.359375 192.6171875 -16.359375 192.6171875 C-16.029375 191.6271875 -15.699375 190.6371875 -15.359375 189.6171875 C-13.7578125 188.00390625 -13.7578125 188.00390625 -11.734375 186.3046875 C-10.65349609 185.38623047 -10.65349609 185.38623047 -9.55078125 184.44921875 C-8.82761719 183.84464844 -8.10445313 183.24007812 -7.359375 182.6171875 C-6.12846347 181.57758328 -4.89916809 180.53606096 -3.671875 179.4921875 C-3.15238281 179.05648437 -2.63289063 178.62078125 -2.09765625 178.171875 C-0.29870353 176.56292403 1.39800995 174.8704224 3.10096741 173.16107178 C4.83303825 171.42424604 6.57120995 169.69366301 8.31005859 167.96362305 C12.07145465 164.22013999 15.82970378 160.47351397 19.58691406 156.72583008 C21.20157345 155.11620229 22.81712885 153.5074728 24.43359375 151.8996582 C26.78365998 149.56181194 29.13040152 147.22067086 31.4765625 144.87890625 C32.19033051 144.17029953 32.90409851 143.46169281 33.63949585 142.73161316 C37.64669875 138.72485271 41.47272026 134.62032228 45.16140747 130.31782532 C47.05361745 128.14237526 49.07181764 126.12423942 51.140625 124.1171875 C54.5694529 120.73477351 57.76111018 117.23648308 60.89453125 113.58203125 C62.73678175 111.50898426 64.66464162 109.56282948 66.640625 107.6171875 C69.82982259 104.47075693 72.80537322 101.21112165 75.7265625 97.81640625 C78.76132237 94.3295291 81.89405319 90.93252251 85.015625 87.5234375 C87.0036299 85.32243207 88.95041598 83.10104404 90.88671875 80.85546875 C101.94202541 68.19993406 114.02126176 56.47170765 127.640625 46.6171875 C128.51847656 45.9675 129.39632813 45.3178125 130.30078125 44.6484375 C160.35075924 22.93244706 160.35075924 22.93244706 174.765625 24.9296875 C175.714375 25.1565625 176.663125 25.3834375 177.640625 25.6171875 C177.970625 27.2671875 178.300625 28.9171875 178.640625 30.6171875 C177.485625 31.1328125 176.330625 31.6484375 175.140625 32.1796875 C174.32207031 32.54707031 173.50351562 32.91445312 172.66015625 33.29296875 C170.4158927 34.277193 168.16829511 35.22873188 165.90234375 36.16015625 C157.12416665 39.81070907 149.34030303 43.95565954 141.640625 49.6171875 C140.8878125 50.15859375 140.135 50.7 139.359375 51.2578125 C129.02617513 58.97027327 116.80609701 68.86897948 109.640625 79.6171875 C108.980625 79.6171875 108.320625 79.6171875 107.640625 79.6171875 C107.37056641 80.20258301 107.10050781 80.78797852 106.82226562 81.39111328 C105.6431738 83.61238586 104.36102679 85.32280339 102.734375 87.234375 C101.87440918 88.2560376 101.87440918 88.2560376 100.99707031 89.29833984 C100.38444336 90.02230957 99.77181641 90.7462793 99.140625 91.4921875 C92.92002434 98.96605159 87.10391509 106.57314323 81.640625 114.6171875 C80.68978027 116.01275879 80.68978027 116.01275879 79.71972656 117.43652344 C60.19098724 146.18890531 42.70970576 175.91075231 26.1105957 206.44140625 C9.24237535 237.41550428 -8.67200313 267.72797485 -30.359375 295.6171875 C-31.28012191 296.81497043 -32.20069565 298.01288651 -33.12109375 299.2109375 C-46.68383676 316.76641679 -61.65462078 332.96516678 -77.296875 348.6796875 C-77.98225342 349.36973877 -78.66763184 350.05979004 -79.3737793 350.77075195 C-83.87254435 355.25533048 -88.53411081 359.48758066 -93.359375 363.6171875 C-93.9052124 364.09003174 -94.4510498 364.56287598 -95.01342773 365.05004883 C-126.021609 391.88470972 -161.65072918 414.43045072 -201.359375 425.6171875 C-202.39320313 425.91367187 -203.42703125 426.21015625 -204.4921875 426.515625 C-233.7574388 434.39773268 -266.04753024 432.95846319 -292.859375 418.2421875 C-301.94756609 412.61910047 -309.00748721 405.42545495 -312.140625 395.0234375 C-313.83854507 387.24875087 -314.47740761 378.11667896 -310.796875 370.8046875 C-306.58476668 364.56283134 -300.53795189 359.79639834 -293.359375 357.6171875 C-287.14378865 356.92656679 -282.45040743 357.82524611 -277.359375 361.6171875 C-274.57712577 365.61667076 -273.75576313 368.78829255 -274.359375 373.6171875 C-276.21856573 378.7816062 -278.61379298 380.94779761 -283.359375 383.6171875 C-286.91982677 384.80400476 -289.79745837 384.71408582 -293.546875 384.6796875 C-294.81917969 384.67066406 -296.09148437 384.66164063 -297.40234375 384.65234375 C-298.86607422 384.63494141 -298.86607422 384.63494141 -300.359375 384.6171875 C-300.32863662 392.83970341 -298.93500945 398.44666318 -293.359375 404.6171875 C-278.14277765 418.79501344 -256.65743553 422.29086421 -236.48046875 421.87109375 C-196.04013683 418.58120442 -159.89383719 393.23701027 -131.1796875 366.12890625 C-129.359375 364.6171875 -129.359375 364.6171875 -127.359375 364.6171875 C-127.029375 363.6271875 -126.699375 362.6371875 -126.359375 361.6171875 C-124.7578125 360.0390625 -124.7578125 360.0390625 -122.734375 358.3671875 C-114.94850059 351.74711247 -108.20962443 344.32139774 -101.734375 336.4296875 C-99.359375 333.6171875 -99.359375 333.6171875 -97.05859375 331.34375 C-94.14718242 328.40284536 -91.46281 325.34109447 -88.796875 322.1796875 C-88.32830078 321.63248047 -87.85972656 321.08527344 -87.37695312 320.52148438 C-85.16141629 317.90312266 -83.16658247 315.32565637 -81.26953125 312.45703125 C-79.47601649 309.79059929 -77.62692266 307.87216096 -75.359375 305.6171875 C-73.35204314 303.1274163 -71.45011573 300.56201207 -69.546875 297.9921875 C-69.0120752 297.27434082 -68.47727539 296.55649414 -67.92626953 295.81689453 C-64.58539803 291.31680041 -61.31085059 286.77826889 -58.12890625 282.1640625 C-56.35258298 279.60741179 -54.54174485 277.07855085 -52.72338867 274.55175781 C-48.52611865 268.71604867 -44.45421756 262.81949972 -40.4921875 256.8203125 C-37.96173694 253.02000214 -35.38474114 249.25354375 -32.796875 245.4921875 C-32.36189697 244.85941895 -31.92691895 244.22665039 -31.47875977 243.57470703 C-28.40836957 239.11752298 -25.30682795 234.68263524 -22.20043945 230.25048828 C-20.33749574 227.58589328 -18.48376794 224.91512198 -16.6328125 222.2421875 C-9.85519935 212.45901539 -3.0372697 202.71325639 3.95825195 193.08447266 C9.59834337 185.31793471 15.12304898 177.47103445 20.640625 169.6171875 C20.310625 169.9471875 19.980625 170.2771875 19.640625 170.6171875 C19.00125 170.8853125 18.361875 171.1534375 17.703125 171.4296875 C15.25543845 172.83896157 14.67203538 174.03866156 13.640625 176.6171875 C12.980625 176.6171875 12.320625 176.6171875 11.640625 176.6171875 C11.25003906 177.514375 11.25003906 177.514375 10.8515625 178.4296875 C9.54996399 180.78096222 8.34243304 181.9347101 6.265625 183.6171875 C2.52235397 186.77514706 -0.92613316 190.13225318 -4.359375 193.6171875 C-8.86488867 198.16725507 -13.46853596 202.48010299 -18.359375 206.6171875 C-19.38501079 207.50547669 -20.40966272 208.39490252 -21.43359375 209.28515625 C-89.23514087 268.09628223 -89.23514087 268.09628223 -128.54296875 266.921875 C-135.67611551 266.35239143 -140.19225976 264.14937788 -145.171875 259.0546875 C-152.15158008 250.24078085 -153.46454978 240.58834959 -152.359375 229.6171875 C-148.87547195 208.34360453 -137.71460748 187.08492997 -125.359375 169.6171875 C-124.57205754 168.45328193 -123.78712854 167.28775899 -123.00390625 166.12109375 C-110.80905265 148.02834091 -97.27548355 131.21570986 -82.58984375 115.09375 C-81.34987191 113.71696866 -80.11643794 112.33391824 -78.91023254 110.92745972 C-74.43671506 105.72262962 -69.70641369 100.84783979 -64.828125 96.0234375 C-64.03337769 95.23247681 -63.23863037 94.44151611 -62.4197998 93.62658691 C-59.05401952 90.27700177 -55.68226452 86.9334548 -52.31103516 83.58935547 C-49.83547273 81.13197811 -47.36299417 78.67152692 -44.890625 76.2109375 C-43.76376282 75.09652283 -43.76376282 75.09652283 -42.61413574 73.95959473 C-38.53539552 69.89962839 -34.63827015 65.75372403 -30.90808105 61.37023926 C-29.38444887 59.64556977 -27.78645424 58.06657481 -26.109375 56.4921875 C-16.96685742 47.43222087 -5.40647642 34.72774915 -4.734375 21.3671875 C-5.05069816 16.44836239 -6.8657424 12.7853763 -9.359375 8.6171875 C-9.63007813 7.92367187 -9.90078125 7.23015625 -10.1796875 6.515625 C-11.8130945 3.88702963 -13.45812037 3.58427238 -16.359375 2.6171875 C-17.2359375 2.215 -18.1125 1.8128125 -19.015625 1.3984375 C-19.9540625 0.975625 -20.8925 0.5528125 -21.859375 0.1171875 C-22.7771875 -0.305625 -23.695 -0.7284375 -24.640625 -1.1640625 C-34.55695656 -4.41395268 -44.8190119 -4.71666166 -55.171875 -4.6328125 C-56.40019043 -4.62531982 -57.62850586 -4.61782715 -58.89404297 -4.61010742 C-87.96738531 -4.2663283 -114.90902183 4.85590503 -140.359375 18.6171875 C-141.37040283 19.16076904 -141.37040283 19.16076904 -142.40185547 19.71533203 C-157.93619811 28.11927638 -172.18942055 38.12216084 -186.234375 48.8046875 C-187.28367187 49.60261719 -188.33296875 50.40054688 -189.4140625 51.22265625 C-192.90585703 54.06147594 -195.97666767 57.17829793 -199.08984375 60.41796875 C-200.47511427 61.85523334 -201.916161 63.23811634 -203.359375 64.6171875 C-204.019375 64.6171875 -204.679375 64.6171875 -205.359375 64.6171875 C-205.61589844 65.205 -205.87242187 65.7928125 -206.13671875 66.3984375 C-207.47080158 68.81939293 -208.89379141 70.24889231 -210.921875 72.1171875 C-225.85212396 86.72345276 -240.29978463 108.563956 -240.609375 130.0546875 C-240.53832289 136.99410984 -239.49426582 140.77066641 -235.296875 146.3671875 C-229.01649603 151.17769054 -221.12341513 152.61199087 -213.359375 151.6171875 C-182.92931353 146.30612298 -159.7646903 125.12826463 -138.546875 104.0546875 C-138.0584613 103.57172211 -137.57004761 103.08875671 -137.0668335 102.59115601 C-131.12287158 96.6966041 -125.54670787 90.62744708 -120.34375 84.06079102 C-118.37985482 81.64240681 -116.31544448 79.376597 -114.171875 77.1171875 C-107.80469223 70.1345477 -102.39712319 62.38673191 -96.88037109 54.72851562 C-95.66810221 53.04573853 -94.44689162 51.36940401 -93.22265625 49.6953125 C-85.98294759 39.63734895 -79.61363347 28.83859377 -74.359375 17.6171875 C-73.039375 17.6171875 -71.719375 17.6171875 -70.359375 17.6171875 C-66.41733853 25.86938835 -68.74374866 35.44730275 -71.296875 43.8671875 C-78.07908711 62.63520549 -89.84574031 79.12913513 -103.359375 93.6171875 C-104.40516737 94.84284588 -105.44695904 96.07193113 -106.484375 97.3046875 C-114.75581438 106.76875302 -123.80501936 115.73276106 -133.68359375 123.50390625 C-136.11856013 125.42699649 -138.47943147 127.41827275 -140.83349609 129.43896484 C-146.69909133 134.44865242 -152.78249631 138.61387004 -159.359375 142.6171875 C-161.08857082 143.76297683 -162.81773697 144.90881095 -164.546875 146.0546875 C-182.98812986 157.70454538 -204.13811178 166.82398126 -226.359375 164.6171875 C-231.53606843 163.35589153 -235.93064076 161.56967699 -240.359375 158.6171875 C-240.359375 157.9571875 -240.359375 157.2971875 -240.359375 156.6171875 C-241.349375 156.2871875 -242.339375 155.9571875 -243.359375 155.6171875 C-250.43533296 147.19742743 -251.16361522 137.24868399 -250.54589844 126.64794922 C-248.12322814 100.27128493 -229.88386132 78.0347115 -212.359375 59.6171875 C-211.82006348 59.04919434 -211.28075195 58.48120117 -210.72509766 57.89599609 C-202.50821159 49.30399647 -193.92843916 41.66681534 -184.359375 34.6171875 C-183.77655762 34.18422363 -183.19374023 33.75125977 -182.59326172 33.30517578 C-174.45750658 27.28476189 -166.10798816 21.71760308 -157.359375 16.6171875 C-156.3701001 16.03735107 -156.3701001 16.03735107 -155.36083984 15.44580078 C-139.15244882 6.01117742 -122.38090577 -2.06141648 -104.359375 -7.3828125 C-103.17472656 -7.73988281 -101.99007812 -8.09695312 -100.76953125 -8.46484375 C-70.70452704 -17.03192606 -25.97899954 -21.79976918 0 0 Z " fill="#33C728" transform="translate(320.359375,127.3828125)"/>
</svg>
